<mxfile host="app.diagrams.net" modified="2022-04-21T10:38:50.282Z" agent="5.0 (Windows NT 10.0; Win64; x64) AppleWebKit/537.36 (KHTML, like Gecko) Chrome/100.0.4896.88 Safari/537.36" etag="jwjA4jdt-wAXpfsA7qin" version="14.9.9" type="github">
  <diagram id="r9coZ3SHxbXu03hRXBzI" name="Page-1">
    <mxGraphModel dx="1038" dy="539" grid="1" gridSize="10" guides="1" tooltips="1" connect="1" arrows="1" fold="1" page="1" pageScale="1" pageWidth="827" pageHeight="1169" math="0" shadow="0">
      <root>
        <mxCell id="0" />
        <mxCell id="1" parent="0" />
        <mxCell id="iYdBuN2wYEer2rM_jmkH-16" value="" style="edgeStyle=none;rounded=0;orthogonalLoop=1;jettySize=auto;html=1;" edge="1" parent="1" source="iYdBuN2wYEer2rM_jmkH-1" target="iYdBuN2wYEer2rM_jmkH-15">
          <mxGeometry relative="1" as="geometry" />
        </mxCell>
        <mxCell id="iYdBuN2wYEer2rM_jmkH-1" value="" style="verticalLabelPosition=bottom;verticalAlign=top;html=1;shadow=0;dashed=0;strokeWidth=1;shape=mxgraph.android.phone2;strokeColor=#c0c0c0;" vertex="1" parent="1">
          <mxGeometry y="40" width="220" height="360" as="geometry" />
        </mxCell>
        <mxCell id="iYdBuN2wYEer2rM_jmkH-3" value="" style="strokeWidth=1;shadow=0;dashed=0;align=center;html=1;shape=mxgraph.mockup.forms.rrect;rSize=0;strokeColor=#999999;fillColor=#ffffff;" vertex="1" parent="1">
          <mxGeometry x="10" y="70" width="200" height="300" as="geometry" />
        </mxCell>
        <mxCell id="iYdBuN2wYEer2rM_jmkH-4" value="Sign In" style="strokeWidth=1;shadow=0;dashed=0;align=center;html=1;shape=mxgraph.mockup.forms.anchor;fontSize=12;fontColor=#666666;align=left;resizeWidth=1;spacingLeft=0;" vertex="1" parent="iYdBuN2wYEer2rM_jmkH-3">
          <mxGeometry width="100" height="20" relative="1" as="geometry">
            <mxPoint x="10" y="10" as="offset" />
          </mxGeometry>
        </mxCell>
        <mxCell id="iYdBuN2wYEer2rM_jmkH-5" value="" style="shape=line;strokeColor=#ddeeff;strokeWidth=2;html=1;resizeWidth=1;" vertex="1" parent="iYdBuN2wYEer2rM_jmkH-3">
          <mxGeometry width="180" height="10" relative="1" as="geometry">
            <mxPoint x="10" y="30" as="offset" />
          </mxGeometry>
        </mxCell>
        <mxCell id="iYdBuN2wYEer2rM_jmkH-6" value="User Name:" style="strokeWidth=1;shadow=0;dashed=0;align=center;html=1;shape=mxgraph.mockup.forms.anchor;fontSize=12;fontColor=#666666;align=left;resizeWidth=1;spacingLeft=0;" vertex="1" parent="iYdBuN2wYEer2rM_jmkH-3">
          <mxGeometry width="100" height="20" relative="1" as="geometry">
            <mxPoint x="10" y="40" as="offset" />
          </mxGeometry>
        </mxCell>
        <mxCell id="iYdBuN2wYEer2rM_jmkH-7" value="johndoe" style="strokeWidth=1;shadow=0;dashed=0;align=center;html=1;shape=mxgraph.mockup.forms.rrect;rSize=0;strokeColor=#999999;fontColor=#666666;align=left;spacingLeft=5;resizeWidth=1;" vertex="1" parent="iYdBuN2wYEer2rM_jmkH-3">
          <mxGeometry width="150" height="25" relative="1" as="geometry">
            <mxPoint x="10" y="60" as="offset" />
          </mxGeometry>
        </mxCell>
        <mxCell id="iYdBuN2wYEer2rM_jmkH-8" value="Password:" style="strokeWidth=1;shadow=0;dashed=0;align=center;html=1;shape=mxgraph.mockup.forms.anchor;fontSize=12;fontColor=#666666;align=left;resizeWidth=1;spacingLeft=0;" vertex="1" parent="iYdBuN2wYEer2rM_jmkH-3">
          <mxGeometry width="100" height="20" relative="1" as="geometry">
            <mxPoint x="10" y="95" as="offset" />
          </mxGeometry>
        </mxCell>
        <mxCell id="iYdBuN2wYEer2rM_jmkH-9" value="********" style="strokeWidth=1;shadow=0;dashed=0;align=center;html=1;shape=mxgraph.mockup.forms.rrect;rSize=0;strokeColor=#999999;fontColor=#666666;align=left;spacingLeft=5;resizeWidth=1;" vertex="1" parent="iYdBuN2wYEer2rM_jmkH-3">
          <mxGeometry width="150" height="25" relative="1" as="geometry">
            <mxPoint x="10" y="115" as="offset" />
          </mxGeometry>
        </mxCell>
        <mxCell id="iYdBuN2wYEer2rM_jmkH-10" value="SIGN IN" style="strokeWidth=1;shadow=0;dashed=0;align=center;html=1;shape=mxgraph.mockup.forms.rrect;rSize=5;strokeColor=none;fontColor=#ffffff;fillColor=#66bbff;fontSize=16;fontStyle=1;" vertex="1" parent="iYdBuN2wYEer2rM_jmkH-3">
          <mxGeometry y="1" width="80" height="30" relative="1" as="geometry">
            <mxPoint x="20" y="-150" as="offset" />
          </mxGeometry>
        </mxCell>
        <mxCell id="iYdBuN2wYEer2rM_jmkH-11" value="Forgot Password?" style="strokeWidth=1;shadow=0;dashed=0;align=center;html=1;shape=mxgraph.mockup.forms.anchor;fontSize=12;fontColor=#9999ff;align=left;spacingLeft=0;fontStyle=4;resizeWidth=1;" vertex="1" parent="iYdBuN2wYEer2rM_jmkH-3">
          <mxGeometry y="1" width="150" height="20" relative="1" as="geometry">
            <mxPoint x="10" y="-110" as="offset" />
          </mxGeometry>
        </mxCell>
        <mxCell id="iYdBuN2wYEer2rM_jmkH-12" value="" style="shape=line;strokeColor=#ddeeff;strokeWidth=2;html=1;resizeWidth=1;" vertex="1" parent="iYdBuN2wYEer2rM_jmkH-3">
          <mxGeometry y="1" width="180" height="10" relative="1" as="geometry">
            <mxPoint x="10" y="-90" as="offset" />
          </mxGeometry>
        </mxCell>
        <mxCell id="iYdBuN2wYEer2rM_jmkH-13" value="New User" style="strokeWidth=1;shadow=0;dashed=0;align=center;html=1;shape=mxgraph.mockup.forms.anchor;fontSize=12;fontColor=#666666;align=left;spacingLeft=0;resizeWidth=1;" vertex="1" parent="iYdBuN2wYEer2rM_jmkH-3">
          <mxGeometry y="1" width="150" height="20" relative="1" as="geometry">
            <mxPoint x="10" y="-70" as="offset" />
          </mxGeometry>
        </mxCell>
        <mxCell id="iYdBuN2wYEer2rM_jmkH-14" value="SIGN UP" style="strokeWidth=1;shadow=0;dashed=0;align=center;html=1;shape=mxgraph.mockup.forms.rrect;rSize=5;strokeColor=none;fontColor=#ffffff;fillColor=#66bbff;fontSize=16;fontStyle=1;" vertex="1" parent="iYdBuN2wYEer2rM_jmkH-3">
          <mxGeometry y="1" width="80" height="30" relative="1" as="geometry">
            <mxPoint x="20" y="-50" as="offset" />
          </mxGeometry>
        </mxCell>
        <mxCell id="iYdBuN2wYEer2rM_jmkH-20" value="" style="edgeStyle=none;rounded=0;orthogonalLoop=1;jettySize=auto;html=1;" edge="1" parent="1" source="iYdBuN2wYEer2rM_jmkH-15" target="iYdBuN2wYEer2rM_jmkH-19">
          <mxGeometry relative="1" as="geometry" />
        </mxCell>
        <mxCell id="iYdBuN2wYEer2rM_jmkH-15" value="" style="verticalLabelPosition=bottom;verticalAlign=top;html=1;shadow=0;dashed=0;strokeWidth=1;shape=mxgraph.android.phone2;strokeColor=#c0c0c0;" vertex="1" parent="1">
          <mxGeometry x="304" y="40" width="220" height="360" as="geometry" />
        </mxCell>
        <mxCell id="iYdBuN2wYEer2rM_jmkH-18" value="" style="verticalLabelPosition=bottom;shadow=0;dashed=0;align=center;html=1;verticalAlign=top;strokeWidth=1;shape=mxgraph.mockup.misc.loading_circle_2;pointerEvents=1" vertex="1" parent="1">
          <mxGeometry x="365" y="175" width="90" height="90" as="geometry" />
        </mxCell>
        <mxCell id="iYdBuN2wYEer2rM_jmkH-19" value="" style="verticalLabelPosition=bottom;verticalAlign=top;html=1;shadow=0;dashed=0;strokeWidth=1;shape=mxgraph.android.phone2;strokeColor=#c0c0c0;" vertex="1" parent="1">
          <mxGeometry x="600" y="40" width="220" height="360" as="geometry" />
        </mxCell>
        <mxCell id="iYdBuN2wYEer2rM_jmkH-21" value="Hello johndoe, welcome to polar app" style="text;html=1;strokeColor=none;fillColor=none;align=center;verticalAlign=middle;whiteSpace=wrap;rounded=0;" vertex="1" parent="1">
          <mxGeometry x="610" y="70" width="200" height="30" as="geometry" />
        </mxCell>
        <mxCell id="iYdBuN2wYEer2rM_jmkH-22" value="" style="rounded=1;whiteSpace=wrap;html=1;" vertex="1" parent="1">
          <mxGeometry x="610" y="110" width="200" height="80" as="geometry" />
        </mxCell>
        <mxCell id="iYdBuN2wYEer2rM_jmkH-23" value="" style="rounded=1;whiteSpace=wrap;html=1;" vertex="1" parent="1">
          <mxGeometry x="610" y="195" width="200" height="85" as="geometry" />
        </mxCell>
        <mxCell id="iYdBuN2wYEer2rM_jmkH-24" value="" style="rounded=1;whiteSpace=wrap;html=1;" vertex="1" parent="1">
          <mxGeometry x="610" y="280" width="200" height="85" as="geometry" />
        </mxCell>
        <mxCell id="iYdBuN2wYEer2rM_jmkH-25" value="Summary 1" style="text;html=1;strokeColor=none;fillColor=none;align=center;verticalAlign=middle;whiteSpace=wrap;rounded=0;" vertex="1" parent="1">
          <mxGeometry x="610" y="110" width="80" height="20" as="geometry" />
        </mxCell>
        <mxCell id="iYdBuN2wYEer2rM_jmkH-28" value="Summary 2" style="text;html=1;strokeColor=none;fillColor=none;align=center;verticalAlign=middle;whiteSpace=wrap;rounded=0;" vertex="1" parent="1">
          <mxGeometry x="610" y="200" width="80" height="20" as="geometry" />
        </mxCell>
        <mxCell id="iYdBuN2wYEer2rM_jmkH-29" value="Summary 3" style="text;html=1;strokeColor=none;fillColor=none;align=center;verticalAlign=middle;whiteSpace=wrap;rounded=0;" vertex="1" parent="1">
          <mxGeometry x="620" y="280" width="80" height="20" as="geometry" />
        </mxCell>
        <mxCell id="iYdBuN2wYEer2rM_jmkH-30" value="" style="verticalLabelPosition=bottom;shadow=0;dashed=0;align=center;html=1;verticalAlign=top;strokeWidth=1;shape=mxgraph.mockup.graphics.lineChart;strokeColor=none;strokeColor2=#666666;strokeColor3=#008cff;strokeColor4=#dddddd;" vertex="1" parent="1">
          <mxGeometry x="630" y="135" width="120" height="40" as="geometry" />
        </mxCell>
        <mxCell id="iYdBuN2wYEer2rM_jmkH-31" value="" style="verticalLabelPosition=bottom;shadow=0;dashed=0;align=center;html=1;verticalAlign=top;strokeWidth=1;shape=mxgraph.mockup.graphics.lineChart;strokeColor=none;strokeColor2=#666666;strokeColor3=#008cff;strokeColor4=#dddddd;" vertex="1" parent="1">
          <mxGeometry x="630" y="230" width="120" height="40" as="geometry" />
        </mxCell>
        <mxCell id="iYdBuN2wYEer2rM_jmkH-32" value="" style="verticalLabelPosition=bottom;shadow=0;dashed=0;align=center;html=1;verticalAlign=top;strokeWidth=1;shape=mxgraph.mockup.graphics.lineChart;strokeColor=none;strokeColor2=#666666;strokeColor3=#008cff;strokeColor4=#dddddd;" vertex="1" parent="1">
          <mxGeometry x="630" y="310" width="120" height="40" as="geometry" />
        </mxCell>
        <mxCell id="iYdBuN2wYEer2rM_jmkH-33" value="" style="strokeWidth=1;shadow=0;dashed=0;align=center;html=1;shape=mxgraph.mockup.forms.rrect;rSize=0;strokeColor=#999999;fillColor=#ffffff;" vertex="1" parent="1">
          <mxGeometry x="10" y="510" width="200" height="300" as="geometry" />
        </mxCell>
        <mxCell id="iYdBuN2wYEer2rM_jmkH-34" value="Sign In" style="strokeWidth=1;shadow=0;dashed=0;align=center;html=1;shape=mxgraph.mockup.forms.anchor;fontSize=12;fontColor=#666666;align=left;resizeWidth=1;spacingLeft=0;" vertex="1" parent="iYdBuN2wYEer2rM_jmkH-33">
          <mxGeometry width="100" height="20" relative="1" as="geometry">
            <mxPoint x="10" y="10" as="offset" />
          </mxGeometry>
        </mxCell>
        <mxCell id="iYdBuN2wYEer2rM_jmkH-35" value="" style="shape=line;strokeColor=#ddeeff;strokeWidth=2;html=1;resizeWidth=1;" vertex="1" parent="iYdBuN2wYEer2rM_jmkH-33">
          <mxGeometry width="180" height="10" relative="1" as="geometry">
            <mxPoint x="10" y="30" as="offset" />
          </mxGeometry>
        </mxCell>
        <mxCell id="iYdBuN2wYEer2rM_jmkH-36" value="User Name:" style="strokeWidth=1;shadow=0;dashed=0;align=center;html=1;shape=mxgraph.mockup.forms.anchor;fontSize=12;fontColor=#666666;align=left;resizeWidth=1;spacingLeft=0;" vertex="1" parent="iYdBuN2wYEer2rM_jmkH-33">
          <mxGeometry width="100" height="20" relative="1" as="geometry">
            <mxPoint x="10" y="40" as="offset" />
          </mxGeometry>
        </mxCell>
        <mxCell id="iYdBuN2wYEer2rM_jmkH-37" value="johndoe" style="strokeWidth=1;shadow=0;dashed=0;align=center;html=1;shape=mxgraph.mockup.forms.rrect;rSize=0;strokeColor=#999999;fontColor=#666666;align=left;spacingLeft=5;resizeWidth=1;" vertex="1" parent="iYdBuN2wYEer2rM_jmkH-33">
          <mxGeometry width="150" height="25" relative="1" as="geometry">
            <mxPoint x="10" y="60" as="offset" />
          </mxGeometry>
        </mxCell>
        <mxCell id="iYdBuN2wYEer2rM_jmkH-38" value="Password:" style="strokeWidth=1;shadow=0;dashed=0;align=center;html=1;shape=mxgraph.mockup.forms.anchor;fontSize=12;fontColor=#666666;align=left;resizeWidth=1;spacingLeft=0;" vertex="1" parent="iYdBuN2wYEer2rM_jmkH-33">
          <mxGeometry width="100" height="20" relative="1" as="geometry">
            <mxPoint x="10" y="95" as="offset" />
          </mxGeometry>
        </mxCell>
        <mxCell id="iYdBuN2wYEer2rM_jmkH-39" value="********" style="strokeWidth=1;shadow=0;dashed=0;align=center;html=1;shape=mxgraph.mockup.forms.rrect;rSize=0;strokeColor=#999999;fontColor=#666666;align=left;spacingLeft=5;resizeWidth=1;" vertex="1" parent="iYdBuN2wYEer2rM_jmkH-33">
          <mxGeometry width="150" height="25" relative="1" as="geometry">
            <mxPoint x="10" y="115" as="offset" />
          </mxGeometry>
        </mxCell>
        <mxCell id="iYdBuN2wYEer2rM_jmkH-40" value="SIGN IN" style="strokeWidth=1;shadow=0;dashed=0;align=center;html=1;shape=mxgraph.mockup.forms.rrect;rSize=5;strokeColor=none;fontColor=#ffffff;fillColor=#66bbff;fontSize=16;fontStyle=1;" vertex="1" parent="iYdBuN2wYEer2rM_jmkH-33">
          <mxGeometry y="1" width="80" height="30" relative="1" as="geometry">
            <mxPoint x="20" y="-150" as="offset" />
          </mxGeometry>
        </mxCell>
        <mxCell id="iYdBuN2wYEer2rM_jmkH-41" value="Forgot Password?" style="strokeWidth=1;shadow=0;dashed=0;align=center;html=1;shape=mxgraph.mockup.forms.anchor;fontSize=12;fontColor=#9999ff;align=left;spacingLeft=0;fontStyle=4;resizeWidth=1;" vertex="1" parent="iYdBuN2wYEer2rM_jmkH-33">
          <mxGeometry y="1" width="150" height="20" relative="1" as="geometry">
            <mxPoint x="10" y="-110" as="offset" />
          </mxGeometry>
        </mxCell>
        <mxCell id="iYdBuN2wYEer2rM_jmkH-42" value="" style="shape=line;strokeColor=#ddeeff;strokeWidth=2;html=1;resizeWidth=1;" vertex="1" parent="iYdBuN2wYEer2rM_jmkH-33">
          <mxGeometry y="1" width="180" height="10" relative="1" as="geometry">
            <mxPoint x="10" y="-90" as="offset" />
          </mxGeometry>
        </mxCell>
        <mxCell id="iYdBuN2wYEer2rM_jmkH-43" value="New User" style="strokeWidth=1;shadow=0;dashed=0;align=center;html=1;shape=mxgraph.mockup.forms.anchor;fontSize=12;fontColor=#666666;align=left;spacingLeft=0;resizeWidth=1;" vertex="1" parent="iYdBuN2wYEer2rM_jmkH-33">
          <mxGeometry y="1" width="150" height="20" relative="1" as="geometry">
            <mxPoint x="10" y="-70" as="offset" />
          </mxGeometry>
        </mxCell>
        <mxCell id="iYdBuN2wYEer2rM_jmkH-44" value="SIGN UP" style="strokeWidth=1;shadow=0;dashed=0;align=center;html=1;shape=mxgraph.mockup.forms.rrect;rSize=5;strokeColor=none;fontColor=#ffffff;fillColor=#66bbff;fontSize=16;fontStyle=1;" vertex="1" parent="iYdBuN2wYEer2rM_jmkH-33">
          <mxGeometry y="1" width="80" height="30" relative="1" as="geometry">
            <mxPoint x="20" y="-50" as="offset" />
          </mxGeometry>
        </mxCell>
        <mxCell id="iYdBuN2wYEer2rM_jmkH-45" value="" style="verticalLabelPosition=bottom;shadow=0;dashed=0;align=center;html=1;verticalAlign=top;strokeWidth=1;shape=mxgraph.mockup.misc.loading_circle_2;pointerEvents=1" vertex="1" parent="1">
          <mxGeometry x="365" y="600" width="90" height="90" as="geometry" />
        </mxCell>
        <mxCell id="iYdBuN2wYEer2rM_jmkH-71" value="" style="edgeStyle=none;rounded=0;orthogonalLoop=1;jettySize=auto;html=1;" edge="1" parent="1" source="iYdBuN2wYEer2rM_jmkH-46" target="iYdBuN2wYEer2rM_jmkH-70">
          <mxGeometry relative="1" as="geometry" />
        </mxCell>
        <mxCell id="iYdBuN2wYEer2rM_jmkH-46" value="" style="verticalLabelPosition=bottom;verticalAlign=top;html=1;shadow=0;dashed=0;strokeWidth=1;shape=mxgraph.android.phone2;strokeColor=#c0c0c0;" vertex="1" parent="1">
          <mxGeometry x="600" y="480" width="220" height="360" as="geometry" />
        </mxCell>
        <mxCell id="iYdBuN2wYEer2rM_jmkH-65" value="" style="edgeStyle=none;rounded=0;orthogonalLoop=1;jettySize=auto;html=1;" edge="1" parent="1" source="iYdBuN2wYEer2rM_jmkH-62" target="iYdBuN2wYEer2rM_jmkH-46">
          <mxGeometry relative="1" as="geometry" />
        </mxCell>
        <mxCell id="iYdBuN2wYEer2rM_jmkH-62" value="" style="verticalLabelPosition=bottom;verticalAlign=top;html=1;shadow=0;dashed=0;strokeWidth=1;shape=mxgraph.android.phone2;strokeColor=#c0c0c0;" vertex="1" parent="1">
          <mxGeometry x="304" y="480" width="220" height="360" as="geometry" />
        </mxCell>
        <mxCell id="iYdBuN2wYEer2rM_jmkH-64" value="" style="edgeStyle=none;rounded=0;orthogonalLoop=1;jettySize=auto;html=1;" edge="1" parent="1" source="iYdBuN2wYEer2rM_jmkH-63" target="iYdBuN2wYEer2rM_jmkH-62">
          <mxGeometry relative="1" as="geometry" />
        </mxCell>
        <mxCell id="iYdBuN2wYEer2rM_jmkH-63" value="" style="verticalLabelPosition=bottom;verticalAlign=top;html=1;shadow=0;dashed=0;strokeWidth=1;shape=mxgraph.android.phone2;strokeColor=#c0c0c0;" vertex="1" parent="1">
          <mxGeometry y="480" width="220" height="360" as="geometry" />
        </mxCell>
        <mxCell id="iYdBuN2wYEer2rM_jmkH-66" value="Hello coach johndoe, welcome to polar app" style="text;html=1;strokeColor=none;fillColor=none;align=center;verticalAlign=middle;whiteSpace=wrap;rounded=0;" vertex="1" parent="1">
          <mxGeometry x="610" y="510" width="200" height="30" as="geometry" />
        </mxCell>
        <mxCell id="iYdBuN2wYEer2rM_jmkH-67" value="Send Message" style="strokeWidth=1;shadow=0;dashed=0;align=center;html=1;shape=mxgraph.mockup.buttons.button;strokeColor=#666666;fontColor=#ffffff;mainText=;buttonStyle=round;fontSize=17;fontStyle=1;fillColor=#008cff;whiteSpace=wrap;" vertex="1" parent="1">
          <mxGeometry x="635" y="720" width="150" height="50" as="geometry" />
        </mxCell>
        <mxCell id="iYdBuN2wYEer2rM_jmkH-68" value="" style="rounded=1;whiteSpace=wrap;html=1;" vertex="1" parent="1">
          <mxGeometry x="620" y="580" width="180" height="120" as="geometry" />
        </mxCell>
        <mxCell id="iYdBuN2wYEer2rM_jmkH-69" value="Please Type in your message here.." style="text;html=1;strokeColor=none;fillColor=none;align=left;verticalAlign=middle;whiteSpace=wrap;rounded=0;" vertex="1" parent="1">
          <mxGeometry x="620" y="585" width="180" height="35" as="geometry" />
        </mxCell>
        <mxCell id="iYdBuN2wYEer2rM_jmkH-81" value="" style="edgeStyle=none;rounded=0;orthogonalLoop=1;jettySize=auto;html=1;" edge="1" parent="1" source="iYdBuN2wYEer2rM_jmkH-70" target="iYdBuN2wYEer2rM_jmkH-80">
          <mxGeometry relative="1" as="geometry" />
        </mxCell>
        <mxCell id="iYdBuN2wYEer2rM_jmkH-70" value="" style="verticalLabelPosition=bottom;verticalAlign=top;html=1;shadow=0;dashed=0;strokeWidth=1;shape=mxgraph.android.phone2;strokeColor=#c0c0c0;" vertex="1" parent="1">
          <mxGeometry y="880" width="220" height="360" as="geometry" />
        </mxCell>
        <mxCell id="iYdBuN2wYEer2rM_jmkH-72" value="" style="strokeWidth=1;shadow=0;dashed=0;align=center;html=1;shape=mxgraph.mockup.forms.rrect;rSize=0;strokeColor=#999999;fillColor=#ffffff;recursiveResize=0;" vertex="1" parent="1">
          <mxGeometry x="10" y="1010" width="200" height="130" as="geometry" />
        </mxCell>
        <mxCell id="iYdBuN2wYEer2rM_jmkH-73" value="Player 1" style="strokeWidth=1;shadow=0;dashed=0;align=center;html=1;shape=mxgraph.mockup.forms.rrect;rSize=0;fillColor=#eeeeee;strokeColor=#999999;gradientColor=#cccccc;align=left;spacingLeft=4;fontSize=17;fontColor=#666666;labelPosition=right;" vertex="1" parent="iYdBuN2wYEer2rM_jmkH-72">
          <mxGeometry x="8" y="7.5" width="15" height="15" as="geometry" />
        </mxCell>
        <mxCell id="iYdBuN2wYEer2rM_jmkH-74" value="Player 2" style="strokeWidth=1;shadow=0;dashed=0;align=center;html=1;shape=mxgraph.mockup.forms.rrect;rSize=0;fillColor=#eeeeee;strokeColor=#999999;gradientColor=#cccccc;align=left;spacingLeft=4;fontSize=17;fontColor=#666666;labelPosition=right;" vertex="1" parent="iYdBuN2wYEer2rM_jmkH-72">
          <mxGeometry x="8" y="37.5" width="15" height="15" as="geometry" />
        </mxCell>
        <mxCell id="iYdBuN2wYEer2rM_jmkH-75" value="&lt;font color=&quot;#0000ff&quot;&gt;Player&amp;nbsp;3&lt;/font&gt;" style="strokeWidth=1;shadow=0;dashed=0;align=center;html=1;shape=mxgraph.mockup.forms.checkbox;rSize=0;resizable=0;fillColor=#aaaaaa;strokeColor=#444444;gradientColor=#666666;align=left;spacingLeft=4;fontSize=17;fontColor=#008cff;labelPosition=right;" vertex="1" parent="iYdBuN2wYEer2rM_jmkH-72">
          <mxGeometry x="8" y="67.5" width="15" height="15" as="geometry" />
        </mxCell>
        <mxCell id="iYdBuN2wYEer2rM_jmkH-76" value="Player&amp;nbsp;4" style="strokeWidth=1;shadow=0;dashed=0;align=center;html=1;shape=mxgraph.mockup.forms.rrect;rSize=0;fillColor=#eeeeee;strokeColor=#999999;gradientColor=#cccccc;align=left;spacingLeft=4;fontSize=17;fontColor=#666666;labelPosition=right;" vertex="1" parent="iYdBuN2wYEer2rM_jmkH-72">
          <mxGeometry x="8" y="97.5" width="15" height="15" as="geometry" />
        </mxCell>
        <mxCell id="iYdBuN2wYEer2rM_jmkH-77" value="Send Message" style="strokeWidth=1;shadow=0;dashed=0;align=center;html=1;shape=mxgraph.mockup.buttons.button;strokeColor=#666666;fontColor=#ffffff;mainText=;buttonStyle=round;fontSize=17;fontStyle=1;fillColor=#008cff;whiteSpace=wrap;" vertex="1" parent="1">
          <mxGeometry x="35" y="1150" width="150" height="50" as="geometry" />
        </mxCell>
        <mxCell id="iYdBuN2wYEer2rM_jmkH-78" value="Please select the person that you want to send the message to&amp;nbsp;&amp;nbsp;" style="text;html=1;strokeColor=none;fillColor=none;align=left;verticalAlign=middle;whiteSpace=wrap;rounded=0;" vertex="1" parent="1">
          <mxGeometry x="20" y="920" width="180" height="35" as="geometry" />
        </mxCell>
        <mxCell id="iYdBuN2wYEer2rM_jmkH-79" value="Select All" style="strokeWidth=1;shadow=0;dashed=0;align=center;html=1;shape=mxgraph.mockup.forms.rrect;rSize=0;fillColor=#eeeeee;strokeColor=#999999;gradientColor=#cccccc;align=left;spacingLeft=4;fontSize=17;fontColor=#666666;labelPosition=right;" vertex="1" parent="1">
          <mxGeometry x="20" y="970" width="15" height="15" as="geometry" />
        </mxCell>
        <mxCell id="iYdBuN2wYEer2rM_jmkH-84" value="" style="edgeStyle=none;rounded=0;orthogonalLoop=1;jettySize=auto;html=1;" edge="1" parent="1" source="iYdBuN2wYEer2rM_jmkH-80" target="iYdBuN2wYEer2rM_jmkH-83">
          <mxGeometry relative="1" as="geometry" />
        </mxCell>
        <mxCell id="iYdBuN2wYEer2rM_jmkH-80" value="" style="verticalLabelPosition=bottom;verticalAlign=top;html=1;shadow=0;dashed=0;strokeWidth=1;shape=mxgraph.android.phone2;strokeColor=#c0c0c0;" vertex="1" parent="1">
          <mxGeometry x="300" y="880" width="220" height="360" as="geometry" />
        </mxCell>
        <mxCell id="iYdBuN2wYEer2rM_jmkH-82" value="" style="verticalLabelPosition=bottom;shadow=0;dashed=0;align=center;html=1;verticalAlign=top;strokeWidth=1;shape=mxgraph.mockup.misc.loading_circle_2;pointerEvents=1" vertex="1" parent="1">
          <mxGeometry x="365" y="1010" width="90" height="90" as="geometry" />
        </mxCell>
        <mxCell id="iYdBuN2wYEer2rM_jmkH-83" value="" style="verticalLabelPosition=bottom;verticalAlign=top;html=1;shadow=0;dashed=0;strokeWidth=1;shape=mxgraph.android.phone2;strokeColor=#c0c0c0;" vertex="1" parent="1">
          <mxGeometry x="600" y="880" width="220" height="360" as="geometry" />
        </mxCell>
        <mxCell id="iYdBuN2wYEer2rM_jmkH-85" value="Hello coach johndoe, welcome to polar app" style="text;html=1;strokeColor=none;fillColor=none;align=center;verticalAlign=middle;whiteSpace=wrap;rounded=0;" vertex="1" parent="1">
          <mxGeometry x="610" y="910" width="200" height="30" as="geometry" />
        </mxCell>
        <mxCell id="iYdBuN2wYEer2rM_jmkH-86" value="" style="rounded=1;whiteSpace=wrap;html=1;" vertex="1" parent="1">
          <mxGeometry x="620" y="955" width="180" height="120" as="geometry" />
        </mxCell>
        <mxCell id="iYdBuN2wYEer2rM_jmkH-87" value="Please Type in your message here.." style="text;html=1;strokeColor=none;fillColor=none;align=left;verticalAlign=middle;whiteSpace=wrap;rounded=0;" vertex="1" parent="1">
          <mxGeometry x="630" y="960" width="180" height="35" as="geometry" />
        </mxCell>
        <mxCell id="iYdBuN2wYEer2rM_jmkH-88" value="Send Message" style="strokeWidth=1;shadow=0;dashed=0;align=center;html=1;shape=mxgraph.mockup.buttons.button;strokeColor=#666666;fontColor=#ffffff;mainText=;buttonStyle=round;fontSize=17;fontStyle=1;fillColor=#008cff;whiteSpace=wrap;" vertex="1" parent="1">
          <mxGeometry x="635" y="1100" width="150" height="50" as="geometry" />
        </mxCell>
        <mxCell id="iYdBuN2wYEer2rM_jmkH-89" value="Your Message has been sent&amp;nbsp;" style="whiteSpace=wrap;html=1;shape=mxgraph.basic.roundRectCallout;dx=30;dy=15;size=5;boundedLbl=1;" vertex="1" parent="1">
          <mxGeometry x="605" y="920" width="210" height="80" as="geometry" />
        </mxCell>
        <mxCell id="iYdBuN2wYEer2rM_jmkH-91" value="Player UI" style="text;html=1;strokeColor=none;fillColor=none;align=center;verticalAlign=middle;whiteSpace=wrap;rounded=0;fontSize=25;fontStyle=1" vertex="1" parent="1">
          <mxGeometry x="18" width="202" height="30" as="geometry" />
        </mxCell>
        <mxCell id="iYdBuN2wYEer2rM_jmkH-92" value="Coach UI" style="text;html=1;strokeColor=none;fillColor=none;align=center;verticalAlign=middle;whiteSpace=wrap;rounded=0;fontSize=25;fontStyle=1" vertex="1" parent="1">
          <mxGeometry y="420" width="250" height="40" as="geometry" />
        </mxCell>
      </root>
    </mxGraphModel>
  </diagram>
</mxfile>
